# xmcd
#
# Track frame offsets: 
#        150
#        23850
#        71025
#        92850
#        124125
#        154275
#
# Disc length: 2345 seconds
#
# Revision: 0
# Processed by: cddbd v1.5.2PL0 Copyright (c) Steve Scherf et al.
# Submitted via: ExactAudioCopy v0.99pb3
#
DISCID=4f092706
DTITLE=Jimmy Dawkins and Hip Linkchain - Jimmy And Hip
DYEAR=1982
DGENRE=Blues
TTITLE0=Hip Linkchain - Mother-In-Law Blues
TTITLE1=Hip Linkchain - Bloodstain On The Walls
TTITLE2=Hip Linkchain - Hideaway
TTITLE3=Jimmy Dawkins - Little Red Rooster
TTITLE4=Jimmy Dawkins - Sounds Of West Side Chicago
TTITLE5=Jimmy Dawkins - Boogie Chillun
EXTD=
EXTT0=
EXTT1=
EXTT2=
EXTT3=
EXTT4=
EXTT5=
PLAYORDER=
